{"title":"Deadliest Catch - Season 3 - 3 Disc Set - DVD-R [RLG]","uid":13668420,"size":23511652613,"categoryP":"video","categoryS":"tv_shows","magnet":"?xt=urn:btih:14f80ece8aa6056f63204b962e71c9d4689faedf&amp;dn=Deadliest+Catch+-+Season+3+-+3+Disc+Set+-+DVD-R+%5BRLG%5D&amp;tr=udp%3A%2F%2Ftracker.leechers-paradise.org%3A6969&amp;tr=udp%3A%2F%2Fzer0day.ch%3A1337&amp;tr=udp%3A%2F%2Fopen.demonii.com%3A1337&amp;tr=udp%3A%2F%2Ftracker.coppersurfer.tk%3A6969&amp;tr=udp%3A%2F%2Fexodus.desync.com%3A6969","seeders":0,"leechers":1,"uploader":"RedLegsGreaves","files":110,"time":1456286681,"description":"[IMG]http://lookpic.com/O/i2/310/jppIiGz.jpeg[/IMG]\r\n\r\n[b]INFO[/b]\r\n \nhttp://www.imdb.com/title/tt0446809/\r\n\r\nVideo\r\nID                          : 224 (0xE0)\r\nFormat                      : MPEG Video\r\nFormat version              : Version 2\r\nFormat profile              :   \r\nFormat settings, BVOP       : Yes\r\nFormat settings, Matrix     : Custom\r\nFormat settings, GOP        : M=3, N=15\r\nFormat settings, picture st : Frame\r\nDuration                    : 31s 31ms\r\nBit rate mode               : Variable\r\nBit rate                    : 4 713 Kbps\r\nMaximum bit rate            : 8 200 Kbps\r\nWidth                       : 720 pixels\r\nHeight                      : 480 pixels\r\nDisplay aspect ratio        : 16:9\r\nFrame rate                  : 29.970 (30000/1001) fps\r\nStandard                    : NTSC\r\nColor space                 : YUV\r\nChroma subsampling          : 4:2:0\r\nBit depth                   : 8 bits\r\nScan type                   : Interlaced\r\nScan order                  : Top Field First\r\nCompression mode            : Lossy\r\nBits/(Pixel*Frame)          : 0.455\r\nTime code of first frame    : 01:01:29;00\r\nTime code source            : Group of pictures header\r\nGOP, Open/Closed            : Closed\r\nStream size                 : 17.4 MiB (94%)\r\n\r\nAudio\r\nID                          : 189 (0xBD)-128 (0x80)\r\nFormat                      : AC-3\r\nFormat/Info                 : Audio Coding 3\r\nMode extension              : CM (complete main)\r\nFormat settings, Endianness : Big\r\nMuxing mode                 : DVD-Video\r\nDuration                    : 31s 40ms\r\nBit rate mode               : Constant\r\nBit rate                    : 224 Kbps\r\nChannel(s)                  : 2 channels\r\nChannel positions           : Front: L R\r\nSampling rate               : 48.0 KHz\r\nFrame rate                  : 31.250 fps (1536 spf)\r\nCompression mode            : Lossy\r\nStream size                 : 849 KiB (4%)\r\n[b]Plot[/b]\r\n\r\nA documentary series chronicling the real-life high-sea adventures of the Alaskan crab fishermen. This is the most deadly profession in the world.\r\n\r\n[color=red][b]For Newer Users[/b][/color]\r\nSimply Drag downloaded folder to your Media Player. This is a NTSC DVD\r\nThis is ripped so you would have best quality, menu, bonus/special feature, language options etc\r\nNote: DVDs may not have have all* featues \r\n\r\n[b]Screenshots[/b]\r\n\r\n[IMG]http://lookpic.com/O/i2/801/NM79pGWL.jpeg[/IMG]\r\n[IMG]http://lookpic.com/O/i2/1836/jJ8RhwpU.jpeg[/IMG]\r\n[IMG]http://lookpic.com/O/i2/1936/ikLt7gPO.jpeg[/IMG]\r\n[IMG]http://lookpic.com/O/i2/1019/1GhJPldJ.jpeg[/IMG][IMG]http://lookpic.com/O/i2/196/2o1Gggmf.jpeg[/IMG]\r\n\r\n[img]https://i.imgur.com/fLhfPWl.jpg[/img]","torrent":{"xt":"urn:btih:14f80ece8aa6056f63204b962e71c9d4689faedf","amp;dn":"Deadliest+Catch+-+Season+3+-+3+Disc+Set+-+DVD-R+%5BRLG%5D","amp;tr":["udp%3A%2F%2Ftracker.leechers-paradise.org%3A6969","udp%3A%2F%2Fzer0day.ch%3A1337","udp%3A%2F%2Fopen.demonii.com%3A1337","udp%3A%2F%2Ftracker.coppersurfer.tk%3A6969","udp%3A%2F%2Fexodus.desync.com%3A6969"],"infoHash":"14f80ece8aa6056f63204b962e71c9d4689faedf","infoHashBuffer":{"type":"Buffer","data":[20,248,14,206,138,166,5,111,99,32,75,150,46,113,201,212,104,159,174,223]},"announce":[],"urlList":[]}}